<svg width="520" height="150" viewBox="0 0 520 150" fill="none" xmlns="http://www.w3.org/2000/svg">
  <path d="M8 31C97 13 190 22 279 15C358 9 446 13 512 25C501 39 504 52 518 66C430 61 340 67 251 65C162 64 74 63 7 72C18 58 20 43 8 31Z" fill="black"/>
  <path d="M15 78C108 67 198 73 291 69C370 66 448 70 514 81C503 96 504 109 518 123C428 114 338 119 246 118C157 117 72 116 5 126C18 109 20 93 15 78Z" fill="black"/>
  <path d="M12 128C103 121 204 126 294 122C382 118 454 122 514 131C390 149 155 149 12 139C5 136 6 132 12 128Z" fill="black"/>
</svg>
