<svg width="560" height="230" viewBox="0 0 560 230" fill="none" xmlns="http://www.w3.org/2000/svg">
  <path d="M8 39C108 19 219 31 318 21C394 13 482 17 550 31C541 49 542 65 556 84C458 77 362 85 265 84C178 84 91 80 13 91C25 73 21 58 8 39Z" fill="#E50909"/>
  <path d="M24 105C118 94 206 102 300 96C383 91 472 95 545 106C533 122 534 139 550 158C455 149 354 154 257 153C169 153 86 151 17 162C28 145 27 124 24 105Z" fill="#E50909"/>
  <path d="M12 174C105 161 213 169 314 163C397 158 475 162 550 174C509 183 464 185 424 187C280 195 140 195 9 188C5 184 6 180 12 174Z" fill="#E50909"/>
</svg>
