<svg width="360" height="390" viewBox="0 0 360 390" fill="none" xmlns="http://www.w3.org/2000/svg">
  <g opacity="0.74">
    <path d="M145 116C129 109 122 93 127 75C134 48 159 36 181 44C206 34 236 48 242 78C246 99 237 113 221 120L214 89C195 78 169 77 149 91L145 116Z" fill="#1E1E1E"/>
    <path d="M137 112C128 113 122 121 124 133C126 145 135 153 143 149L137 112Z" fill="#D9D9D9"/>
    <path d="M226 112C235 113 241 121 239 133C237 145 228 153 220 149L226 112Z" fill="#D9D9D9"/>
    <path d="M140 82C151 67 209 67 222 85V134C222 163 203 186 181 186C159 186 140 163 140 134V82Z" fill="#D7D7D7"/>
    <path d="M152 95C165 78 200 77 218 93L224 118C226 103 226 89 220 76C205 49 153 49 137 77C132 91 134 105 139 119L152 95Z" fill="#111111"/>
    <path d="M97 232C104 201 125 183 157 175H204C237 183 258 201 264 232L282 353C284 369 272 384 256 384H105C89 384 77 369 80 353L97 232Z" fill="#3A3A3A"/>
    <path d="M151 176L181 225L211 176V384H151V176Z" fill="#303030"/>
    <path d="M151 177L118 199L147 259L181 225L151 177Z" fill="#4A4A4A"/>
    <path d="M211 177L244 199L215 259L181 225L211 177Z" fill="#4A4A4A"/>
    <path d="M104 264L135 285L161 245L132 229L104 264Z" fill="#F0F0F0"/>
    <path d="M187 197C180 192 169 194 165 202L142 251C138 259 140 268 148 272L162 280C170 284 179 281 183 273L205 227C211 215 202 203 187 197Z" fill="#E6E6E6"/>
    <path d="M157 205C166 194 182 196 190 207" stroke="#BDBDBD" stroke-width="4" stroke-linecap="round"/>
    <path d="M158 229L179 217" stroke="#BDBDBD" stroke-width="4" stroke-linecap="round"/>
    <path d="M156 247L180 235" stroke="#BDBDBD" stroke-width="4" stroke-linecap="round"/>
    <path d="M264 235C282 268 289 315 284 350C280 376 254 388 229 382L195 374L206 326L244 334L225 262L264 235Z" fill="#333333"/>
    <path d="M96 236C72 267 68 303 82 342C94 374 127 384 158 371L194 356L175 313L137 327L130 250L96 236Z" fill="#333333"/>
    <path d="M114 235L129 250L136 327L104 334C91 302 93 268 114 235Z" fill="#3F3F3F"/>
    <path d="M244 235L229 250L222 327L254 334C267 302 265 268 244 235Z" fill="#3F3F3F"/>
    <circle cx="181" cy="241" r="4" fill="#242424"/>
    <circle cx="181" cy="270" r="4" fill="#242424"/>
  </g>
  <g opacity="0.62" stroke="#5A5A5A" stroke-width="6" stroke-linecap="round" stroke-linejoin="round">
    <path d="M278 78C297 50 345 65 341 99C337 132 284 125 292 86C301 45 358 66 349 112C339 160 267 145 274 94C280 53 331 41 358 75"/>
    <path d="M284 128L267 146"/>
  </g>
</svg>
